<?xml version="1.0" encoding="utf-8"?>
<!-- Generator: Adobe Illustrator 16.0.0, SVG Export Plug-In . SVG Version: 6.00 Build 0)  -->
<!DOCTYPE svg PUBLIC "-//W3C//DTD SVG 1.1//EN" "http://www.w3.org/Graphics/SVG/1.1/DTD/svg11.dtd">
<svg version="1.1" id="Layer_1" xmlns="http://www.w3.org/2000/svg" xmlns:xlink="http://www.w3.org/1999/xlink" x="0px" y="0px"
	 width="54.426px" height="47.454px" viewBox="0 0 54.426 47.454" enable-background="new 0 0 54.426 47.454" xml:space="preserve">
<line fill="none" stroke="#222222" stroke-width="2" stroke-linecap="round" stroke-miterlimit="10" x1="8.114" y1="16.044" x2="46.258" y2="16.044"/>
<g>
	<defs>
		<rect id="SVGID_1_" width="54.426" height="47.454"/>
	</defs>
	<clipPath id="SVGID_2_">
		<use xlink:href="#SVGID_1_"  overflow="visible"/>
	</clipPath>
	<path clip-path="url(#SVGID_2_)" fill="none" stroke="#222222" stroke-width="2" stroke-miterlimit="10" d="M48.515,24.565v20.834
		c0,0.582-0.472,1.055-1.054,1.055H6.965c-0.583,0-1.055-0.473-1.055-1.055V24.565"/>
	
		<polyline clip-path="url(#SVGID_2_)" fill="none" stroke="#222222" stroke-width="2" stroke-linecap="round" stroke-linejoin="round" stroke-miterlimit="10" points="
		27.213,16.044 33.396,23.801 53.425,23.801 46.312,16.044 	"/>
	
		<polyline clip-path="url(#SVGID_2_)" fill="none" stroke="#222222" stroke-width="2" stroke-linecap="round" stroke-linejoin="round" stroke-miterlimit="10" points="
		27.213,16.044 21.029,23.801 1,23.801 8.114,16.044 	"/>
	<path clip-path="url(#SVGID_2_)" fill="#222222" d="M45.271,10.659c0,0.749-0.607,1.356-1.356,1.356s-1.356-0.607-1.356-1.356
		s0.607-1.356,1.356-1.356S45.271,9.91,45.271,10.659"/>
	<path clip-path="url(#SVGID_2_)" fill="#222222" d="M21.597,1.356c0,0.749-0.607,1.356-1.356,1.356s-1.356-0.607-1.356-1.356
		S19.492,0,20.241,0S21.597,0.607,21.597,1.356"/>
	
		<path clip-path="url(#SVGID_2_)" fill="none" stroke="#222222" stroke-width="2" stroke-linecap="round" stroke-linejoin="round" stroke-miterlimit="10" d="
		M32.414,11.015c0,0,1.927-3.086,7.714-4"/>
	
		<path clip-path="url(#SVGID_2_)" fill="none" stroke="#222222" stroke-width="2" stroke-linecap="round" stroke-linejoin="round" stroke-miterlimit="10" d="
		M21.284,11.015c0,0-1.928-3.086-7.714-4"/>
	
		<line clip-path="url(#SVGID_2_)" fill="none" stroke="#222222" stroke-width="1.5" stroke-linecap="round" stroke-linejoin="round" stroke-miterlimit="10" x1="34.38" y1="1.647" x2="34.38" y2="4.192"/>
	
		<line clip-path="url(#SVGID_2_)" fill="none" stroke="#222222" stroke-width="1.5" stroke-linecap="round" stroke-linejoin="round" stroke-miterlimit="10" x1="35.652" y1="2.919" x2="33.106" y2="2.919"/>
	
		<line clip-path="url(#SVGID_2_)" fill="none" stroke="#222222" stroke-width="1.5" stroke-linecap="round" stroke-linejoin="round" stroke-miterlimit="10" x1="8.842" y1="7.821" x2="8.842" y2="10.367"/>
	
		<line clip-path="url(#SVGID_2_)" fill="none" stroke="#222222" stroke-width="1.5" stroke-linecap="round" stroke-linejoin="round" stroke-miterlimit="10" x1="10.115" y1="9.094" x2="7.569" y2="9.094"/>
	
		<line clip-path="url(#SVGID_2_)" fill="none" stroke="#222222" stroke-width="2" stroke-linecap="round" stroke-linejoin="round" stroke-miterlimit="10" x1="27.07" y1="11.015" x2="27.07" y2="4.054"/>
	<path clip-path="url(#SVGID_2_)" fill="#222222" d="M11.734,36.13v-0.799h6.701v0.799h-2.914v2.03h-0.898v-2.03H11.734z
		 M18.043,34.24h-5.918v-3.663h5.918V34.24z M13.033,33.458h4.104v-2.089h-4.104V33.458z"/>
	<path clip-path="url(#SVGID_2_)" fill="none" stroke="#222222" stroke-width="0.1" stroke-miterlimit="10" d="M11.734,36.13v-0.799
		h6.701v0.799h-2.914v2.03h-0.898v-2.03H11.734z M18.043,34.24h-5.918v-3.663h5.918V34.24z M13.033,33.458h4.104v-2.089h-4.104
		V33.458z"/>
	<path clip-path="url(#SVGID_2_)" fill="#222222" d="M21.102,33.408v1.231h5.102v0.782h-1.19v1.498h1.489v0.783h-6.7V36.92h1.54
		v-1.498h-1.149v-2.797h5.011v-1.206h-5.011v-0.8h5.918v2.789H21.102z M24.106,35.422h-1.865v1.498h1.865V35.422z"/>
	<path clip-path="url(#SVGID_2_)" fill="none" stroke="#222222" stroke-width="0.1" stroke-miterlimit="10" d="M21.102,33.408v1.231
		h5.102v0.782h-1.19v1.498h1.489v0.783h-6.7V36.92h1.54v-1.498h-1.149v-2.797h5.011v-1.206h-5.011v-0.8h5.918v2.789H21.102z
		 M24.106,35.422h-1.865v1.498h1.865V35.422z"/>
	<path clip-path="url(#SVGID_2_)" fill="#222222" d="M28.955,33.259h1.115v-2.64h0.874v6.909H28.08v-6.909h0.875V33.259z
		 M30.07,34.032h-1.115v2.729h1.115V34.032z M34.272,38.035h-0.882v-3.753h-0.849v3.662h-0.866v-7.408h0.866v2.955h0.849v-3.005
		h0.882V38.035z"/>
	<path clip-path="url(#SVGID_2_)" fill="none" stroke="#222222" stroke-width="0.1" stroke-miterlimit="10" d="M28.955,33.259h1.115
		v-2.64h0.874v6.909H28.08v-6.909h0.875V33.259z M30.07,34.032h-1.115v2.729h1.115V34.032z M34.272,38.035h-0.882v-3.753h-0.849
		v3.662h-0.866v-7.408h0.866v2.955h0.849v-3.005h0.882V38.035z"/>
	<path clip-path="url(#SVGID_2_)" fill="#222222" d="M35.892,34.773v-0.774h2.938v-0.982h0.899v0.982h2.963v0.774H35.892z
		 M39.279,32.067c-0.566,0.658-1.765,1.183-3.171,1.324v-0.782c1.414-0.199,2.721-0.791,2.721-1.864v-0.208h0.899v0.208
		c0,1.073,1.29,1.665,2.739,1.864v0.782C41.043,33.25,39.845,32.726,39.279,32.067 M36.249,36.82c0-0.466,0.217-0.781,0.607-1.016
		c0.524-0.299,1.374-0.424,2.447-0.424c1.082,0,1.915,0.125,2.438,0.424c0.393,0.234,0.608,0.55,0.608,1.016
		c0,0.467-0.216,0.782-0.608,1.016c-0.523,0.3-1.356,0.417-2.438,0.417c-1.073,0-1.923-0.117-2.447-0.417
		C36.466,37.603,36.249,37.287,36.249,36.82 M37.156,36.82c0,0.167,0.092,0.309,0.258,0.408c0.342,0.191,0.975,0.267,1.89,0.267
		c0.916,0,1.548-0.075,1.882-0.267c0.174-0.1,0.266-0.241,0.266-0.408s-0.092-0.299-0.266-0.407
		c-0.334-0.191-0.966-0.267-1.882-0.267c-0.915,0-1.548,0.075-1.89,0.267C37.248,36.521,37.156,36.653,37.156,36.82"/>
	<path clip-path="url(#SVGID_2_)" fill="none" stroke="#222222" stroke-width="0.1" stroke-miterlimit="10" d="M35.892,34.773
		v-0.774h2.938v-0.982h0.899v0.982h2.963v0.774H35.892z M39.279,32.067c-0.566,0.658-1.765,1.183-3.171,1.324v-0.782
		c1.414-0.199,2.721-0.791,2.721-1.864v-0.208h0.899v0.208c0,1.073,1.29,1.665,2.739,1.864v0.782
		C41.043,33.25,39.845,32.726,39.279,32.067z M36.249,36.82c0-0.466,0.217-0.781,0.607-1.016c0.524-0.299,1.374-0.424,2.447-0.424
		c1.082,0,1.915,0.125,2.438,0.424c0.393,0.234,0.608,0.55,0.608,1.016c0,0.467-0.216,0.782-0.608,1.016
		c-0.523,0.3-1.356,0.417-2.438,0.417c-1.073,0-1.923-0.117-2.447-0.417C36.466,37.603,36.249,37.287,36.249,36.82z M37.156,36.82
		c0,0.167,0.092,0.309,0.258,0.408c0.342,0.191,0.975,0.267,1.89,0.267c0.916,0,1.548-0.075,1.882-0.267
		c0.174-0.1,0.266-0.241,0.266-0.408s-0.092-0.299-0.266-0.407c-0.334-0.191-0.966-0.267-1.882-0.267
		c-0.915,0-1.548,0.075-1.89,0.267C37.248,36.521,37.156,36.653,37.156,36.82z"/>
</g>
</svg>
