<?xml version="1.0" encoding="utf-8"?>
<!-- Generator: Adobe Illustrator 16.0.0, SVG Export Plug-In . SVG Version: 6.00 Build 0)  -->
<!DOCTYPE svg PUBLIC "-//W3C//DTD SVG 1.1//EN" "http://www.w3.org/Graphics/SVG/1.1/DTD/svg11.dtd">
<svg version="1.1" id="Layer_1" xmlns="http://www.w3.org/2000/svg" xmlns:xlink="http://www.w3.org/1999/xlink" x="0px" y="0px"
	 width="54.4px" height="44.573px" viewBox="0 0 54.4 44.573" enable-background="new 0 0 54.4 44.573" xml:space="preserve">
<g>
	<defs>
		<rect id="SVGID_1_" width="54.4" height="44.573"/>
	</defs>
	<clipPath id="SVGID_2_">
		<use xlink:href="#SVGID_1_"  overflow="visible"/>
	</clipPath>
	
		<path clip-path="url(#SVGID_2_)" fill="none" stroke="#222222" stroke-width="2" stroke-linecap="round" stroke-linejoin="round" stroke-miterlimit="10" d="
		M25.574,6.951H3.911C2.31,6.951,1,5.641,1,4.04V3.911C1,2.31,2.31,1,3.911,1h21.663c1.601,0,2.911,1.31,2.911,2.911V4.04
		C28.485,5.641,27.175,6.951,25.574,6.951z"/>
	
		<path clip-path="url(#SVGID_2_)" fill="none" stroke="#222222" stroke-width="2" stroke-linecap="round" stroke-linejoin="round" stroke-miterlimit="10" d="
		M34.772,12.956H13.109c-1.601,0-2.911-1.311-2.911-2.911V9.916c0-1.601,1.31-2.911,2.911-2.911h21.663
		c1.601,0,2.911,1.31,2.911,2.911v0.129C37.684,11.645,36.373,12.956,34.772,12.956z"/>
	
		<path clip-path="url(#SVGID_2_)" fill="none" stroke="#222222" stroke-width="2" stroke-linecap="round" stroke-linejoin="round" stroke-miterlimit="10" d="
		M29.675,18.96H8.012c-1.601,0-2.911-1.311-2.911-2.911V15.92c0-1.601,1.31-2.911,2.911-2.911h21.663
		c1.601,0,2.911,1.31,2.911,2.911v0.129C32.586,17.649,31.275,18.96,29.675,18.96z"/>
	
		<path clip-path="url(#SVGID_2_)" fill="none" stroke="#222222" stroke-width="2" stroke-linecap="round" stroke-linejoin="round" stroke-miterlimit="10" d="
		M29.675,24.964H8.012c-1.601,0-2.911-1.31-2.911-2.91v-0.129c0-1.602,1.31-2.911,2.911-2.911h21.663
		c1.601,0,2.911,1.309,2.911,2.911v0.129C32.586,23.654,31.275,24.964,29.675,24.964z"/>
	
		<path clip-path="url(#SVGID_2_)" fill="none" stroke="#222222" stroke-width="2" stroke-linecap="round" stroke-linejoin="round" stroke-miterlimit="10" d="
		M29.675,30.969H8.012c-1.601,0-2.911-1.31-2.911-2.911V27.93c0-1.602,1.31-2.911,2.911-2.911h21.663
		c1.601,0,2.911,1.31,2.911,2.911v0.128C32.586,29.659,31.275,30.969,29.675,30.969z"/>
	
		<path clip-path="url(#SVGID_2_)" fill="none" stroke="#222222" stroke-width="2" stroke-linecap="round" stroke-linejoin="round" stroke-miterlimit="10" d="
		M29.675,36.974H8.012c-1.601,0-2.911-1.31-2.911-2.911v-0.128c0-1.602,1.31-2.911,2.911-2.911h21.663
		c1.601,0,2.911,1.31,2.911,2.911v0.128C32.586,35.664,31.275,36.974,29.675,36.974z"/>
	<path clip-path="url(#SVGID_2_)" fill="#F8F8F8" d="M53.4,29.462c0-7.794-6.318-14.111-14.111-14.111
		c-7.794,0-14.112,6.317-14.112,14.111c0,7.793,6.318,14.111,14.112,14.111C47.082,43.573,53.4,37.255,53.4,29.462"/>
	
		<circle clip-path="url(#SVGID_2_)" fill="none" stroke="#222222" stroke-width="2" stroke-linecap="round" stroke-linejoin="round" stroke-miterlimit="10" cx="39.289" cy="29.462" r="14.112"/>
	<path clip-path="url(#SVGID_2_)" fill="#FFFFFF" d="M50.415,29.462c0-6.146-4.98-11.127-11.126-11.127
		c-6.145,0-11.127,4.981-11.127,11.127s4.982,11.126,11.127,11.126C45.435,40.588,50.415,35.607,50.415,29.462"/>
	
		<circle clip-path="url(#SVGID_2_)" fill="none" stroke="#222222" stroke-linecap="round" stroke-linejoin="round" stroke-miterlimit="10" cx="39.289" cy="29.462" r="11.126"/>
	<path clip-path="url(#SVGID_2_)" fill="#222222" d="M44.622,29.509h-1.208l-1.072,4.315h-1.152l-1.127-4.315h-1.465l-1.128,4.315
		h-1.152l-1.086-4.315h-1.275V28.56h1.031l-0.841-3.461h1.058l0.814,3.461h1.818l0.868-3.461h1.235l0.882,3.461h1.805l0.815-3.461
		h1.071l-0.855,3.461h0.964V29.509z M37.579,29.509h-1.317l0.64,2.619L37.579,29.509z M39.805,28.56l-0.476-1.913l-0.488,1.913
		H39.805z M42.383,29.509H41.08l0.652,2.619L42.383,29.509z"/>
	<path clip-path="url(#SVGID_2_)" fill="none" stroke="#222222" stroke-width="0.25" stroke-miterlimit="10" d="M44.622,29.509
		h-1.208l-1.072,4.315h-1.152l-1.127-4.315h-1.465l-1.128,4.315h-1.152l-1.086-4.315h-1.275V28.56h1.031l-0.841-3.461h1.058
		l0.814,3.461h1.818l0.868-3.461h1.235l0.882,3.461h1.805l0.815-3.461h1.071l-0.855,3.461h0.964V29.509z M37.579,29.509h-1.317
		l0.64,2.619L37.579,29.509z M39.805,28.56l-0.476-1.913l-0.488,1.913H39.805z M42.383,29.509H41.08l0.652,2.619L42.383,29.509z"/>
</g>
</svg>
